<?xml version="1.0" standalone="no"?>
<!DOCTYPE svg PUBLIC "-//W3C//DTD SVG 20010904//EN"
 "http://www.w3.org/TR/2001/REC-SVG-20010904/DTD/svg10.dtd">
<svg version="1.0" xmlns="http://www.w3.org/2000/svg"
 width="512.000000pt" height="512.000000pt" viewBox="0 0 512.000000 512.000000"
 preserveAspectRatio="xMidYMid meet">

<g transform="translate(0.000000,512.000000) scale(0.100000,-0.100000)"
fill="#000000" stroke="none">
<path d="M745 5102 c-99 -34 -174 -117 -195 -215 -8 -37 -10 -701 -8 -2357 l3
-2305 21 -46 c28 -60 93 -125 153 -153 l46 -21 1795 0 1795 0 46 21 c60 28
125 93 153 153 l21 46 0 1785 c0 1419 -3 1790 -13 1807 l-12 22 -513 3 -512 3
-45 24 c-58 30 -116 85 -143 136 -22 39 -22 50 -27 565 l-5 524 -40 12 c-30
10 -337 13 -1255 13 -1127 0 -1219 -1 -1265 -17z m866 -2280 c175 -70 266
-200 277 -392 10 -191 -75 -346 -230 -422 -82 -40 -126 -48 -315 -55 l-173 -6
0 -199 0 -198 -140 0 -140 0 0 651 0 650 333 -3 c316 -3 335 -5 388 -26z
m1137 5 c211 -63 340 -198 399 -417 24 -90 24 -318 0 -415 -57 -225 -198 -370
-415 -426 -66 -17 -112 -19 -384 -19 l-308 0 0 651 0 651 328 -5 c258 -3 338
-7 380 -20z m1442 -92 l0 -115 -287 -2 -288 -3 -3 -167 -2 -168 265 0 265 0 0
-110 0 -110 -262 -2 -263 -3 0 -253 0 -252 -137 0 -138 0 0 650 0 650 425 0
425 0 0 -115z"/>
<path d="M1172 2403 l3 -228 131 1 c146 2 197 16 248 70 82 89 65 275 -32 338
-52 35 -109 45 -240 46 l-112 0 2 -227z"/>
<path d="M2320 2199 l0 -421 153 4 c152 3 153 3 222 38 51 25 80 48 105 82 56
75 72 128 78 262 5 132 -6 204 -44 276 -70 134 -170 180 -391 180 l-123 0 0
-421z"/>
</g>
</svg>
